C:\GBW_MyPrograms\KinderuniversiteitApp\Resultaten\Ellis_v10102025\Kleuter\Kleuter_v4.mot
version=1
nRows=19
nColumns=29
inDegrees=yes
endheader
                time	         pelvis_tilt	           pelvis_tx	           pelvis_ty	       hip_flexion_l	       hip_flexion_r	        knee_angle_l	        knee_angle_r	       ankle_angle_l	       ankle_angle_r	    lumbar_extension	hamstrings_r/activation	bifemsh_r/activation	glut_max_r/activation	iliopsoas_r/activation	rect_fem_r/activation	  vasti_r/activation	gastroc_r/activation	 soleus_r/activation	tib_ant_r/activation	hamstrings_l/activation	bifemsh_l/activation	glut_max_l/activation	iliopsoas_l/activation	rect_fem_l/activation	  vasti_l/activation	gastroc_l/activation	 soleus_l/activation	tib_ant_l/activation	
          0.00000000	          1.77945665	          0.00000000	          0.47560008	        -16.01098101	         20.34535837	         -8.93165291	        -25.09748388	        -19.51832679	         -8.36293751	        -10.40478397	          0.08006535	          0.05352786	          0.05000300	          0.08943858	          0.05704856	          0.05000062	          0.05427403	          0.05000361	          0.09122611	          0.05000146	          0.05001588	          0.05000271	          0.27140718	          0.15056493	          0.08495865	          0.30330550	          0.26235761	          0.05000036	
          0.00886483	          1.77846855	          0.00575223	          0.47474601	        -16.30741601	         19.98572615	         -9.63502517	        -24.52187358	        -20.03917373	         -8.74887667	        -10.33238987	          0.08945378	          0.05411920	          0.05000043	          0.07822174	          0.06069448	          0.05000044	          0.05169333	          0.05000120	          0.08560662	          0.05000085	          0.05006207	          0.05000063	          0.27580922	          0.13118444	          0.08666150	          0.28623295	          0.29099820	          0.05000028	
          0.01772967	          1.78021896	          0.01170490	          0.47387673	        -16.51481679	         19.50360484	        -10.53760552	        -24.24234654	        -20.61411322	         -9.08207139	        -10.23579879	          0.08575253	          0.05000172	          0.05000121	          0.06815272	          0.05738965	          0.05738759	          0.05000335	          0.05000307	          0.07565664	          0.05000195	          0.05000780	          0.05000069	          0.24671352	          0.11429779	          0.07833053	          0.26563152	          0.32301633	          0.05000018	
          0.02659450	          1.78527072	          0.01785492	          0.47299212	        -16.62647087	         18.88775101	        -11.65308761	        -24.28801687	        -21.24191795	         -9.29947920	        -10.11206552	          0.09601163	          0.11245736	          0.05000072	          0.05937986	          0.05000253	          0.05000030	          0.09719905	          0.12184978	          0.06591760	          0.05000177	          0.05000792	          0.06878007	          0.22403850	          0.09958500	          0.07345782	          0.23143791	          0.32650336	          0.05000011	
          0.03545933	          1.79269405	          0.02413405	          0.47212821	        -16.64791334	         18.20423257	        -12.95620725	        -24.44818946	        -21.90440155	         -9.37752996	         -9.97075148	          0.09179888	          0.09798166	          0.07834842	          0.05173627	          0.05000096	          0.06068683	          0.11495567	          0.16410843	          0.05743224	          0.05000119	          0.05000873	          0.05992637	          0.19520013	          0.08676605	          0.07511997	          0.20164546	          0.28447350	          0.05000006	
          0.04432417	          1.80105594	          0.03045299	          0.47135765	        -16.58490863	         17.51196039	        -14.41274941	        -24.63268916	        -22.59719000	         -9.29531288	         -9.82395459	          0.09148466	          0.08536936	          0.10169660	          0.05000059	          0.05000113	          0.08746166	          0.13031367	          0.19118484	          0.05003931	          0.05000235	          0.05000673	          0.06725671	          0.17402974	          0.07559717	          0.06545115	          0.17568810	          0.24785387	          0.05000023	
          0.05318900	          1.80912945	          0.03673414	          0.47073900	        -16.43152742	         16.82015307	        -16.01226930	        -24.82324192	        -23.31267811	         -9.11433040	         -9.68043840	          0.09877856	          0.07438072	          0.12445040	          0.05000059	          0.05000093	          0.10888381	          0.14399583	          0.22135209	          0.05000035	          0.05000292	          0.05000582	          0.07853293	          0.16493722	          0.06586610	          0.05702849	          0.15307218	          0.21594821	          0.06555895	
          0.06205383	          1.81596664	          0.04291059	          0.47029047	        -16.18893075	         16.12876499	        -17.74670042	        -24.99803795	        -23.94932508	         -8.89415327	         -9.54714795	          0.10490200	          0.06480696	          0.16089402	          0.05000041	          0.05000068	          0.12160191	          0.15232722	          0.24358787	          0.05000059	          0.05000156	          0.05000251	          0.07233752	          0.16685263	          0.05738782	          0.05157999	          0.13336761	          0.18814971	          0.08896180	
          0.07091867	          1.82077686	          0.04892700	          0.47000819	        -15.86294747	         15.43599606	        -19.58698350	        -25.13439025	        -24.40034166	         -8.67585099	         -9.42998088	          0.11036808	          0.05646634	          0.18614369	          0.05000032	          0.05000057	          0.13120683	          0.15629490	          0.26081894	          0.05000056	          0.06700265	          0.06916374	          0.06302772	          0.17554951	          0.05000123	          0.05000026	          0.11619990	          0.16392967	          0.10359994	
          0.07978350	          1.82308161	          0.05474613	          0.46989119	        -15.45766671	         14.74000006	        -21.47784825	        -25.21553745	        -24.60066669	         -8.48275492	         -9.33271001	          0.11276926	          0.05000445	          0.19861071	          0.05000028	          0.05000054	          0.13736156	          0.15426957	          0.27113817	          0.05000069	          0.09470504	          0.11620957	          0.05617207	          0.18144305	          0.05000067	          0.05000022	          0.10835277	          0.14282744	          0.10983970	
          0.08864834	          1.82292641	          0.06035111	          0.46994802	        -14.96733631	         14.03937980	        -23.36099693	        -25.23238653	        -24.55314704	         -8.32810542	         -9.25645441	          0.11384002	          0.05000537	          0.19975556	          0.05000027	          0.05000058	          0.14079967	          0.14762347	          0.27661817	          0.05000143	          0.11638952	          0.14986840	          0.05200453	          0.18294702	          0.05000054	          0.05000014	          0.11769194	          0.12444162	          0.11841963	
          0.09751317	          1.82077444	          0.06574263	          0.47018560	        -14.38122880	         13.33340079	        -25.19287905	        -25.18178933	        -24.28842492	         -8.22412786	         -9.19998742	          0.11419637	          0.05000490	          0.19196400	          0.05000030	          0.05000064	          0.14148277	          0.13725401	          0.28025955	          0.05000166	          0.13436721	          0.16966139	          0.05000231	          0.18288942	          0.05000054	          0.05000014	          0.10949296	          0.10842260	          0.12121927	
          0.10637800	          1.81734272	          0.07093433	          0.47059937	        -13.69434487	         12.62074208	        -26.94739167	        -25.06305209	        -23.86033580	         -8.18178136	         -9.16036880	          0.11284699	          0.05000464	          0.17975686	          0.05000033	          0.05000075	          0.14132026	          0.13126126	          0.27959576	          0.05000367	          0.14686837	          0.18722882	          0.05000128	          0.18037589	          0.05000060	          0.05000013	          0.10611339	          0.09446564	          0.12578980	
          0.11524284	          1.81333295	          0.07594467	          0.47117104	        -12.90812777	         11.90047883	        -28.62115778	        -24.87763688	        -23.29774297	         -8.20970562	         -9.13441884	          0.11004640	          0.05000375	          0.16715908	          0.05000035	          0.05000090	          0.14068370	          0.12851837	          0.27701383	          0.05001366	          0.15679085	          0.20870283	          0.05000081	          0.17799527	          0.05000066	          0.05000012	          0.09701810	          0.08230533	          0.12548693	
          0.12410767	          1.80929420	          0.08079180	          0.47187460	        -12.02702820	         11.17193442	        -30.20869285	        -24.62832967	        -22.62666153	         -8.30993548	         -9.11962077	          0.10582831	          0.05000314	          0.15496284	          0.05000038	          0.05000112	          0.13987147	          0.12909796	          0.27290084	          0.05001711	          0.16231838	          0.23158330	          0.05000059	          0.17452786	          0.05000075	          0.05000012	          0.08663938	          0.07171041	          0.12314968	
          0.13297250	          1.80560124	          0.08549231	          0.47268095	        -11.05648705	         10.43459563	        -31.70565064	        -24.31854584	        -21.86917115	         -8.47954710	         -9.11412350	          0.10029967	          0.05000264	          0.14413516	          0.05000040	          0.05000146	          0.13885349	          0.13290349	          0.26776142	          0.05000625	          0.16224823	          0.25501268	          0.05000047	          0.17015277	          0.05000088	          0.05000012	          0.07549064	          0.06247936	          0.11889099	
          0.14183734	          1.80253115	          0.09006121	          0.47356094	        -10.00262206	          9.68824857	        -33.11066789	        -23.95231086	        -21.04601188	         -8.71302410	         -9.11658556	          0.09387339	          0.05000225	          0.13515181	          0.05000043	          0.05000232	          0.13765551	          0.13925443	          0.26212319	          0.05000294	          0.15424619	          0.27790628	          0.05000039	          0.16478104	          0.05000112	          0.05000012	          0.06630248	          0.05443670	          0.11507056	
          0.15070217	          1.80025755	          0.09451194	          0.47448726	         -8.87185075	          8.93294953	        -34.42408365	        -23.53400909	        -20.18032720	         -9.00342880	         -9.12603235	          0.08728932	          0.05000192	          0.12837112	          0.05000044	          0.05000267	          0.13606013	          0.14740476	          0.25656673	          0.05000160	          0.13554985	          0.30250406	          0.05000033	          0.15844730	          0.05000150	          0.05000012	          0.05821021	          0.05000065	          0.11408836	
          0.15956700	          1.79886558	          0.09885636	          0.47543543	         -7.67064894	          8.16910422	        -35.64682701	        -23.06823868	        -19.29337641	         -9.34379716	         -9.14179614	          0.08201801	          0.05000174	          0.12389529	          0.05000045	          0.05993780	          0.13310498	          0.15658446	          0.25112181	          0.05000104	          0.11810459	          0.32635210	          0.05000029	          0.15007062	          0.05000189	          0.05000012	          0.05071880	          0.05000054	          0.11673158	
